<?xml version="1.0" encoding="utf-8"?>
<!-- Generator: Adobe Illustrator 24.0.0, SVG Export Plug-In . SVG Version: 6.00 Build 0)  -->
<svg version="1.1" id="Layer_1" xmlns="http://www.w3.org/2000/svg" xmlns:xlink="http://www.w3.org/1999/xlink" x="0px" y="0px"
	 viewBox="0 0 260 96.4" style="enable-background:new 0 0 260 96.4;" xml:space="preserve">
<style type="text/css">
	.st0{fill:#34A853;}
	.st1{fill:#00695C;}
</style>
<g>
	<path class="st0" d="M5.3,41.4H0V0h14.1c3.5,0,6.5,1.2,9.1,3.5c2.6,2.3,3.8,5.3,3.8,8.8c0,3.5-1.3,6.5-3.8,8.8
		c-2.6,2.3-5.6,3.5-9.1,3.5H5.3V41.4z M5.3,19.5h8.9c2.2,0,4-0.8,5.4-2.3c1.3-1.5,2-3.2,2-5c0-1.8-0.7-3.5-2-5
		c-1.3-1.5-3.1-2.3-5.4-2.3H5.3V19.5z"/>
	<path class="st0" d="M44.1,42.3c-4.3,0-7.7-1.4-10.4-4.3c-2.7-2.8-4-6.4-4-10.8c0-4.1,1.3-7.7,3.9-10.6c2.6-3,5.9-4.4,10-4.4
		c4.2,0,7.6,1.4,10.1,4.1c2.5,2.7,3.8,6.4,3.8,11l-0.1,1H34.9c0.2,2.8,1.1,5.1,2.9,6.8c1.8,1.7,3.8,2.5,6.2,2.5
		c3.8,0,6.4-1.6,7.7-4.9l4.7,2c-0.9,2.2-2.4,4-4.6,5.5C49.7,41.5,47.1,42.3,44.1,42.3z M51.7,23.8c-0.1-1.6-0.9-3.2-2.2-4.6
		c-1.4-1.5-3.4-2.2-6.1-2.2c-2,0-3.7,0.6-5.1,1.8c-1.4,1.2-2.4,2.9-3,5H51.7z"/>
	<path class="st0" d="M65.7,16.4c2.7-2.9,6.2-4.3,10.5-4.3c4.2,0,7.7,1.4,10.5,4.3c2.7,2.9,4.1,6.5,4.1,10.8c0,4.3-1.4,7.9-4.1,10.8
		c-2.7,2.9-6.2,4.3-10.5,4.3c-4.2,0-7.7-1.4-10.5-4.3c-2.7-2.9-4.1-6.5-4.1-10.8C61.6,22.9,63,19.3,65.7,16.4z M69.7,34.6
		c1.8,1.9,4,2.8,6.5,2.8c2.5,0,4.7-0.9,6.5-2.8c1.8-1.9,2.7-4.3,2.7-7.4c0-3.1-0.9-5.6-2.7-7.4c-1.8-1.9-4-2.8-6.5-2.8
		c-2.5,0-4.7,0.9-6.5,2.8c-1.8,1.9-2.7,4.3-2.7,7.4C66.9,30.3,67.8,32.8,69.7,34.6z"/>
	<path class="st0" d="M111.3,42.3c-2.2,0-4.1-0.5-5.8-1.4c-1.7-0.9-3-2.1-3.8-3.5h-0.2l0.2,3.9v12.5h-5.3V13.1h5.1V17h0.2
		c0.8-1.4,2.1-2.5,3.8-3.5c1.7-0.9,3.6-1.4,5.8-1.4c3.7,0,6.8,1.4,9.5,4.3c2.7,2.9,4,6.5,4,10.7s-1.3,7.9-4,10.7
		C118.1,40.8,114.9,42.3,111.3,42.3z M110.4,37.4c2.5,0,4.6-0.9,6.4-2.8c1.8-1.9,2.7-4.3,2.7-7.4c0-3.1-0.9-5.6-2.7-7.4
		c-1.8-1.9-3.9-2.8-6.4-2.8c-2.5,0-4.6,0.9-6.4,2.8c-1.8,1.8-2.6,4.3-2.6,7.5c0,3.1,0.9,5.6,2.6,7.4
		C105.8,36.5,107.9,37.4,110.4,37.4z"/>
	<path class="st0" d="M135.8,41.4h-5.3V0h5.3V41.4z"/>
	<path class="st0" d="M156,42.3c-4.3,0-7.7-1.4-10.4-4.3c-2.7-2.8-4-6.4-4-10.8c0-4.1,1.3-7.7,3.9-10.6c2.6-3,5.9-4.4,10-4.4
		c4.2,0,7.6,1.4,10.1,4.1c2.5,2.7,3.8,6.4,3.8,11l-0.1,1h-22.3c0.2,2.8,1.1,5.1,2.9,6.8c1.8,1.7,3.8,2.5,6.2,2.5
		c3.8,0,6.4-1.6,7.7-4.9l4.7,2c-0.9,2.2-2.4,4-4.6,5.5C161.7,41.5,159.1,42.3,156,42.3z M163.6,23.8c-0.1-1.6-0.9-3.2-2.2-4.6
		c-1.4-1.5-3.4-2.2-6.1-2.2c-2,0-3.7,0.6-5.1,1.8c-1.4,1.2-2.4,2.9-3,5H163.6z"/>
	<path class="st0" d="M212.1,41.4L227.6,0h6l15.6,41.4h-5.9l-4-11.2H222l-4,11.2H212.1z M223.8,25.2h13.7l-6.8-18.7h-0.2L223.8,25.2
		z"/>
	<path class="st0" d="M254.7,41.4V0h5.3v41.4H254.7z"/>
	<path class="st1" d="M0,95.5V54.1h14.1c3.5,0,6.5,1.2,9.1,3.5c2.6,2.3,3.8,5.3,3.8,8.8c0,2.9-0.9,5.4-2.8,7.7
		c-1.9,2.2-4.2,3.6-7,4.2L17,78.5l11.6,16.8v0.2h-6.3L11.2,78.7H5.3v16.7H0z M5.3,73.8h8.5c2.1,0,3.9-0.7,5.5-2.1
		c1.5-1.4,2.3-3.1,2.3-5.3c0-1.8-0.7-3.5-2-5c-1.3-1.5-3.1-2.3-5.4-2.3H5.3V73.8z"/>
	<path class="st1" d="M45.6,96.4c-4.3,0-7.7-1.4-10.4-4.3c-2.7-2.8-4-6.4-4-10.8c0-4.1,1.3-7.7,3.9-10.6c2.6-3,5.9-4.4,10-4.4
		c4.2,0,7.6,1.4,10.1,4.1c2.5,2.7,3.8,6.4,3.8,11l-0.1,1H36.4c0.2,2.8,1.1,5.1,2.9,6.8c1.8,1.7,3.8,2.5,6.2,2.5
		c3.8,0,6.4-1.6,7.7-4.9l4.7,2c-0.9,2.2-2.4,4-4.6,5.5C51.2,95.7,48.6,96.4,45.6,96.4z M53.2,77.9c-0.1-1.6-0.9-3.2-2.2-4.6
		c-1.4-1.5-3.4-2.2-6.1-2.2c-2,0-3.7,0.6-5.1,1.8c-1.4,1.2-2.4,2.9-3,5H53.2z"/>
	<path class="st1" d="M74.8,96.4c-3.2,0-5.8-0.8-7.8-2.3c-2.1-1.5-3.6-3.5-4.5-5.8l4.7-2c1.5,3.5,4.1,5.3,7.7,5.3
		c1.7,0,3-0.4,4.1-1.1c1.1-0.7,1.6-1.7,1.6-2.9c0-1.8-1.3-3.1-3.9-3.8L71,82.6c-1.8-0.5-3.5-1.3-5.1-2.6c-1.6-1.3-2.4-3-2.4-5.2
		c0-2.5,1.1-4.5,3.3-6.1c2.2-1.6,4.8-2.3,7.9-2.3c2.5,0,4.7,0.6,6.7,1.7c2,1.1,3.4,2.8,4.2,4.9l-4.6,1.9c-1-2.5-3.2-3.8-6.5-3.8
		c-1.6,0-2.9,0.3-4,1c-1.1,0.7-1.6,1.5-1.6,2.7c0,1.6,1.3,2.7,3.8,3.3l5.6,1.3c2.7,0.6,4.6,1.7,5.9,3.2c1.3,1.5,1.9,3.2,1.9,5.1
		c0,2.5-1,4.7-3.1,6.4C80.8,95.6,78.1,96.4,74.8,96.4z"/>
	<path class="st1" d="M104.3,96.4c-4.3,0-7.7-1.4-10.4-4.3c-2.7-2.8-4-6.4-4-10.8c0-4.1,1.3-7.7,3.9-10.6c2.6-3,5.9-4.4,10-4.4
		c4.2,0,7.6,1.4,10.1,4.1c2.5,2.7,3.8,6.4,3.8,11l-0.1,1H95.2c0.2,2.8,1.1,5.1,2.9,6.8c1.8,1.7,3.8,2.5,6.2,2.5
		c3.8,0,6.4-1.6,7.7-4.9l4.7,2c-0.9,2.2-2.4,4-4.6,5.5C110,95.7,107.4,96.4,104.3,96.4z M112,77.9c-0.1-1.6-0.9-3.2-2.2-4.6
		c-1.4-1.5-3.4-2.2-6.1-2.2c-2,0-3.7,0.6-5.1,1.8c-1.4,1.2-2.4,2.9-3,5H112z"/>
	<path class="st1" d="M132.1,96.4c-3,0-5.5-0.9-7.5-2.6c-2-1.7-3-4-3-6.9c0-3.1,1.2-5.5,3.6-7.2c2.4-1.8,5.3-2.6,8.8-2.6
		c3.1,0,5.7,0.6,7.7,1.7V78c0-2.1-0.7-3.7-2.1-5c-1.4-1.3-3.2-1.9-5.3-1.9c-1.5,0-2.9,0.4-4.2,1.1c-1.3,0.7-2.1,1.7-2.6,3l-4.9-2.1
		c0.7-1.7,1.9-3.3,3.9-4.7c1.9-1.4,4.5-2.2,7.6-2.2c3.6,0,6.6,1.1,9,3.2c2.4,2.1,3.6,5.1,3.6,9v17.1h-5.1v-3.9h-0.2
		C139.3,94.8,136.2,96.4,132.1,96.4z M132.9,91.6c2.2,0,4.2-0.8,6-2.5c1.8-1.6,2.7-3.6,2.7-5.8c-1.5-1.2-3.8-1.8-6.8-1.8
		c-2.6,0-4.5,0.6-5.8,1.7c-1.3,1.1-2,2.4-2,3.9c0,1.4,0.6,2.5,1.8,3.3C130,91.2,131.4,91.6,132.9,91.6z"/>
	<path class="st1" d="M159,95.5h-5.3V67.2h5.1v4.6h0.2c0.5-1.5,1.6-2.8,3.3-3.8c1.7-1,3.3-1.5,4.9-1.5c1.6,0,2.9,0.2,4,0.7l-2,5
		c-0.7-0.3-1.6-0.4-2.8-0.4c-1.9,0-3.6,0.8-5.1,2.3c-1.5,1.5-2.2,3.5-2.2,6V95.5z"/>
	<path class="st1" d="M187.2,96.4c-4.2,0-7.7-1.4-10.5-4.3c-2.7-2.9-4.1-6.5-4.1-10.8c0-4.3,1.4-7.9,4.1-10.8
		c2.7-2.9,6.2-4.3,10.5-4.3c3.2,0,5.8,0.8,7.9,2.3c2.1,1.5,3.6,3.5,4.6,5.8l-4.9,2c-1.5-3.5-4.1-5.3-7.9-5.3c-2.3,0-4.4,1-6.2,2.9
		c-1.8,1.9-2.7,4.4-2.7,7.3c0,3,0.9,5.4,2.7,7.3c1.8,1.9,3.9,2.9,6.2,2.9c4,0,6.7-1.8,8.2-5.3l4.7,2c-1,2.3-2.5,4.2-4.6,5.8
		S190.3,96.4,187.2,96.4z"/>
	<path class="st1" d="M210.2,54.1v13.1l-0.2,3.9h0.2c0.8-1.3,2-2.5,3.6-3.4c1.7-0.9,3.4-1.4,5.3-1.4c3.5,0,6.2,1.1,8,3.2
		c1.8,2.2,2.8,5,2.8,8.7v17.3h-5.3V79c0-5.2-2.3-7.9-7-7.9c-2.2,0-4,0.9-5.4,2.6c-1.4,1.8-2.1,3.8-2.1,6.1v15.7h-5.3V54.1H210.2z"/>
	<g>
		<path class="st0" d="M185.6,28.2h-4.2v-4.4h4.2c2.7,0,4.9-2.2,4.9-4.9v-4.2h4.4v4.2C194.8,24,190.7,28.2,185.6,28.2z"/>
		<path class="st1" d="M194.8,37.3h-4.4v-4.2c0-5.1,4.2-9.3,9.3-9.3h4.2v4.4h-4.2c-2.7,0-4.9,2.2-4.9,4.9V37.3z"/>
	</g>
</g>
</svg>
